<svg width="1280" height="1707" xmlns="http://www.w3.org/2000/svg" xmlns:xlink="http://www.w3.org/1999/xlink" overflow="hidden"><defs><clipPath id="clip0"><rect x="0" y="0" width="1280" height="1707"/></clipPath></defs><g clip-path="url(#clip0)"><rect x="0" y="0" width="1280" height="1707.33" fill="#FFFFFF"/><path d="M56 44.0086 56.0001 504.098 48.0001 504.098 48 44.0086ZM64.0001 500.098 52.0001 524.102 40.0001 500.098Z" fill="#4472C4"/><rect x="100.5" y="53.5105" width="290" height="137.027" stroke="#2F528F" stroke-width="1.33333" stroke-miterlimit="8" fill="#4472C4"/><text fill="#FFFFFF" font-family="Times New Roman,Times New Roman_MSFontService,sans-serif" font-weight="400" font-size="48" transform="matrix(1 0 0 1.0002 140.256 138)">Process P1</text><path d="M56 613.12 56.0001 1073.21 48.0001 1073.21 48 613.12ZM64.0001 1069.21 52.0001 1093.21 40.0001 1069.21Z" fill="#4472C4"/><path d="M56 1169.23 56.0001 1629.32 48.0001 1629.32 48 1169.23ZM64.0001 1625.32 52.0001 1649.32 40.0001 1625.32Z" fill="#4472C4"/><rect x="100.5" y="692.635" width="290" height="136.027" stroke="#2F528F" stroke-width="1.33333" stroke-miterlimit="8" fill="#4472C4"/><text fill="#FFFFFF" font-family="Times New Roman,Times New Roman_MSFontService,sans-serif" font-weight="400" font-size="48" transform="matrix(1 0 0 1.0002 140.256 778)">Process P1</text><rect x="100.5" y="1513.8" width="290" height="136.027" stroke="#2F528F" stroke-width="1.33333" stroke-miterlimit="8" fill="#4472C4"/><text fill="#FFFFFF" font-family="Times New Roman,Times New Roman_MSFontService,sans-serif" font-weight="400" font-size="48" transform="matrix(1 0 0 1.0002 140.256 1599)">Process P1</text><rect x="513.5" y="53.5105" width="291" height="137.027" stroke="#ED7D31" stroke-width="1.33333" stroke-miterlimit="8" fill="#ED7D31"/><text fill="#FFFFFF" font-family="Times New Roman,Times New Roman_MSFontService,sans-serif" font-weight="400" font-size="48" transform="matrix(1 0 0 1.0002 553.795 138)">Process P2</text><rect x="513.5" y="975.691" width="291" height="137.027" stroke="#ED7D31" stroke-width="1.33333" stroke-miterlimit="8" fill="#ED7D31"/><text fill="#FFFFFF" font-family="Times New Roman,Times New Roman_MSFontService,sans-serif" font-weight="400" font-size="48" transform="matrix(1 0 0 1.0002 553.795 1061)">Process P2</text><rect x="513.5" y="1513.8" width="291" height="136.027" stroke="#ED7D31" stroke-width="1.33333" stroke-miterlimit="8" fill="#ED7D31"/><text fill="#FFFFFF" font-family="Times New Roman,Times New Roman_MSFontService,sans-serif" font-weight="400" font-size="48" transform="matrix(1 0 0 1.0002 553.795 1599)">Process P2</text><path d="M27 567.111 1160.54 567.111" stroke="#4472C4" stroke-width="8" stroke-miterlimit="8" fill="none" fill-rule="evenodd"/><path d="M27 1130.22 1160.54 1130.22" stroke="#4472C4" stroke-width="8" stroke-miterlimit="8" fill="none" fill-rule="evenodd"/><path d="M27 1669.33 1160.54 1669.33" stroke="#4472C4" stroke-width="8" stroke-miterlimit="8" fill="none" fill-rule="evenodd"/><text font-family="Times New Roman,Times New Roman_MSFontService,sans-serif" font-weight="400" font-size="48" transform="matrix(1 0 0 1.0002 899.447 104)">Two process <tspan font-size="48" x="0" y="57.9887">are being </tspan><tspan font-size="48" x="0" y="115.977">executing.</tspan><tspan font-size="48" x="-262.154" y="590.885">Process P2 reaches the </tspan><tspan font-size="48" x="-262.154" y="648.873">barrier, sends signals to </tspan><tspan font-size="48" x="-262.154" y="706.862">P1, and holds on till P1 </tspan><tspan font-size="48" x="-262.154" y="763.851">reaches. </tspan><tspan font-size="48" x="-340.924" y="1154.77">Both processes reach. They </tspan><tspan font-size="48" x="-340.924" y="1212.76">access to their shared </tspan><tspan font-size="48" x="-340.924" y="1270.75">resources to update their local </tspan><tspan font-size="48" x="-340.924" y="1327.74">data and continue to execute.</tspan><tspan font-size="48" x="104.615" y="435.915">Barrier</tspan><tspan font-size="48" x="104.615" y="1008.8">Barrier</tspan><tspan font-size="48" x="104.615" y="1538.7">Barrier</tspan></text></g></svg>