<?xml version="1.0" encoding="utf-8" standalone="no"?>
<!DOCTYPE svg PUBLIC "-//W3C//DTD SVG 1.1//EN"
  "http://www.w3.org/Graphics/SVG/1.1/DTD/svg11.dtd">
<svg xmlns:xlink="http://www.w3.org/1999/xlink" width="432pt" height="288pt" viewBox="0 0 432 288" xmlns="http://www.w3.org/2000/svg" version="1.1">
 <metadata>
  <rdf:RDF xmlns:dc="http://purl.org/dc/elements/1.1/" xmlns:cc="http://creativecommons.org/ns#" xmlns:rdf="http://www.w3.org/1999/02/22-rdf-syntax-ns#">
   <cc:Work>
    <dc:type rdf:resource="http://purl.org/dc/dcmitype/StillImage"/>
    <dc:date>2022-07-29T11:55:40.426934</dc:date>
    <dc:format>image/svg+xml</dc:format>
    <dc:creator>
     <cc:Agent>
      <dc:title>Matplotlib v3.5.2, https://matplotlib.org/</dc:title>
     </cc:Agent>
    </dc:creator>
   </cc:Work>
  </rdf:RDF>
 </metadata>
 <defs>
  <style type="text/css">*{stroke-linejoin: round; stroke-linecap: butt}</style>
 </defs>
 <g id="figure_1">
  <g id="patch_1">
   <path d="M 0 288 
L 432 288 
L 432 0 
L 0 0 
L 0 288 
z
" style="fill: none"/>
  </g>
  <g id="patch_2">
   <path d="M 112.68 252 
L 330.12 252 
L 330.12 34.56 
L 112.68 34.56 
z
" style="fill: #ffffff"/>
  </g>
  <g id="pane3d_1">
   <g id="patch_3">
    <path d="M 129.09822 198.386264 
L 200.904009 138.197228 
L 199.90584 51.393878 
L 124.663773 106.302111 
" style="fill: #f2f2f2; opacity: 0.5; stroke: #f2f2f2; stroke-linejoin: miter"/>
   </g>
  </g>
  <g id="pane3d_2">
   <g id="patch_4">
    <path d="M 200.904009 138.197228 
L 316.12668 171.68791 
L 320.238571 81.894718 
L 199.90584 51.393878 
" style="fill: #e6e6e6; opacity: 0.5; stroke: #e6e6e6; stroke-linejoin: miter"/>
   </g>
  </g>
  <g id="pane3d_3">
   <g id="patch_5">
    <path d="M 129.09822 198.386264 
L 251.239879 238.27773 
L 316.12668 171.68791 
L 200.904009 138.197228 
" style="fill: #ececec; opacity: 0.5; stroke: #ececec; stroke-linejoin: miter"/>
   </g>
  </g>
  <g id="axis3d_1">
   <g id="line2d_1">
    <path d="M 129.09822 198.386264 
L 251.239879 238.27773 
" style="fill: none; stroke: #000000; stroke-width: 0.8; stroke-linecap: square"/>
   </g>
   <g id="Line3DCollection_1">
    <path d="M 147.074437 204.257297 
L 217.925874 143.144812 
L 217.650655 55.891671 
" style="fill: none; stroke: #b0b0b0; stroke-width: 0.8"/>
    <path d="M 183.062347 216.010948 
L 251.936706 153.030418 
L 253.139136 64.886967 
" style="fill: none; stroke: #b0b0b0; stroke-width: 0.8"/>
    <path d="M 220.20794 228.142699 
L 286.94892 163.207087 
L 289.718731 74.158828 
" style="fill: none; stroke: #b0b0b0; stroke-width: 0.8"/>
   </g>
   <g id="xtick_1">
    <g id="line2d_2">
     <path d="M 147.691642 203.724931 
L 145.837367 205.324325 
" style="fill: none; stroke: #000000; stroke-width: 0.8; stroke-linecap: square"/>
    </g>
    <g id="text_1">
     <!-- −1 -->
     <g transform="translate(133.168685 228.403241)scale(0.12 -0.12)">
      <defs>
       <path id="TimesNewRomanPSMT-2212" d="M 3484 2000 
L 116 2000 
L 116 2256 
L 3484 2256 
L 3484 2000 
z
" transform="scale(0.015625)"/>
       <path id="TimesNewRomanPSMT-31" d="M 750 3822 
L 1781 4325 
L 1884 4325 
L 1884 747 
Q 1884 391 1914 303 
Q 1944 216 2037 169 
Q 2131 122 2419 116 
L 2419 0 
L 825 0 
L 825 116 
Q 1125 122 1212 167 
Q 1300 213 1334 289 
Q 1369 366 1369 747 
L 1369 3034 
Q 1369 3497 1338 3628 
Q 1316 3728 1258 3775 
Q 1200 3822 1119 3822 
Q 1003 3822 797 3725 
L 750 3822 
z
" transform="scale(0.015625)"/>
      </defs>
      <use xlink:href="#TimesNewRomanPSMT-2212"/>
      <use xlink:href="#TimesNewRomanPSMT-31" x="56.396484"/>
     </g>
    </g>
   </g>
   <g id="xtick_2">
    <g id="line2d_3">
     <path d="M 183.663104 215.461601 
L 181.858203 217.11205 
" style="fill: none; stroke: #000000; stroke-width: 0.8; stroke-linecap: square"/>
    </g>
    <g id="text_2">
     <!-- 0 -->
     <g transform="translate(172.587648 240.463)scale(0.12 -0.12)">
      <defs>
       <path id="TimesNewRomanPSMT-30" d="M 231 2094 
Q 231 2819 450 3342 
Q 669 3866 1031 4122 
Q 1313 4325 1613 4325 
Q 2100 4325 2488 3828 
Q 2972 3213 2972 2159 
Q 2972 1422 2759 906 
Q 2547 391 2217 158 
Q 1888 -75 1581 -75 
Q 975 -75 572 641 
Q 231 1244 231 2094 
z
M 844 2016 
Q 844 1141 1059 588 
Q 1238 122 1591 122 
Q 1759 122 1940 273 
Q 2122 425 2216 781 
Q 2359 1319 2359 2297 
Q 2359 3022 2209 3506 
Q 2097 3866 1919 4016 
Q 1791 4119 1609 4119 
Q 1397 4119 1231 3928 
Q 1006 3669 925 3112 
Q 844 2556 844 2016 
z
" transform="scale(0.015625)"/>
      </defs>
      <use xlink:href="#TimesNewRomanPSMT-30"/>
     </g>
    </g>
   </g>
   <g id="xtick_3">
    <g id="line2d_4">
     <path d="M 220.790864 227.575544 
L 219.0395 229.279533 
" style="fill: none; stroke: #000000; stroke-width: 0.8; stroke-linecap: square"/>
    </g>
    <g id="text_3">
     <!-- 1 -->
     <g transform="translate(209.787862 252.912538)scale(0.12 -0.12)">
      <use xlink:href="#TimesNewRomanPSMT-31"/>
     </g>
    </g>
   </g>
  </g>
  <g id="axis3d_2">
   <g id="line2d_5">
    <path d="M 316.12668 171.68791 
L 251.239879 238.27773 
" style="fill: none; stroke: #000000; stroke-width: 0.8; stroke-linecap: square"/>
   </g>
   <g id="text_4">
    <!-- $y$ -->
    <g transform="translate(309.413457 234.394226)scale(0.12 -0.12)">
     <defs>
      <path id="STIXGeneral-Italic-79" d="M 1555 1190 
L 1690 486 
Q 2118 1190 2294 1558 
Q 2470 1926 2470 2131 
Q 2470 2234 2304 2336 
Q 2138 2445 2138 2586 
Q 2138 2688 2211 2755 
Q 2285 2822 2394 2822 
Q 2534 2822 2630 2720 
Q 2726 2618 2726 2470 
Q 2726 1914 1888 518 
Q 1389 -307 918 -812 
Q 448 -1318 173 -1318 
Q 26 -1318 -64 -1241 
Q -154 -1165 -154 -1043 
Q -154 -934 -80 -860 
Q -6 -787 96 -787 
Q 218 -787 314 -876 
Q 410 -966 486 -966 
Q 602 -966 794 -755 
Q 877 -672 1040 -457 
Q 1203 -243 1248 -173 
Q 1312 -45 1312 51 
Q 1312 243 1113 1046 
Q 915 1850 787 2176 
Q 698 2413 592 2499 
Q 486 2586 294 2586 
Q 192 2586 96 2560 
L 96 2669 
Q 237 2694 301 2707 
Q 563 2758 986 2822 
L 1011 2822 
Q 1082 2822 1277 2227 
Q 1472 1632 1555 1190 
z
" transform="scale(0.015625)"/>
     </defs>
     <use xlink:href="#STIXGeneral-Italic-79" transform="translate(0 0.90625)"/>
    </g>
   </g>
   <g id="Line3DCollection_2">
    <path d="M 139.042913 95.808869 
L 142.77857 186.919123 
L 263.646274 225.545717 
" style="fill: none; stroke: #b0b0b0; stroke-width: 0.8"/>
    <path d="M 161.16512 79.665091 
L 163.864463 169.24451 
L 282.727705 205.963474 
" style="fill: none; stroke: #b0b0b0; stroke-width: 0.8"/>
    <path d="M 182.188785 64.322977 
L 183.946951 152.41097 
L 300.855169 187.360237 
" style="fill: none; stroke: #b0b0b0; stroke-width: 0.8"/>
   </g>
   <g id="xtick_4">
    <g id="line2d_6">
     <path d="M 262.628261 225.220383 
L 265.684904 226.197217 
" style="fill: none; stroke: #000000; stroke-width: 0.8; stroke-linecap: square"/>
    </g>
    <g id="text_5">
     <!-- −1 -->
     <g transform="translate(270.015252 247.156014)scale(0.12 -0.12)">
      <use xlink:href="#TimesNewRomanPSMT-2212"/>
      <use xlink:href="#TimesNewRomanPSMT-31" x="56.396484"/>
     </g>
    </g>
   </g>
   <g id="xtick_5">
    <g id="line2d_7">
     <path d="M 281.727862 205.654605 
L 284.729884 206.581983 
" style="fill: none; stroke: #000000; stroke-width: 0.8; stroke-linecap: square"/>
    </g>
    <g id="text_6">
     <!-- 0 -->
     <g transform="translate(292.166423 227.219277)scale(0.12 -0.12)">
      <use xlink:href="#TimesNewRomanPSMT-30"/>
     </g>
    </g>
   </g>
   <g id="xtick_6">
    <g id="line2d_8">
     <path d="M 299.872974 187.066613 
L 302.821947 187.948198 
" style="fill: none; stroke: #000000; stroke-width: 0.8; stroke-linecap: square"/>
    </g>
    <g id="text_7">
     <!-- 1 -->
     <g transform="translate(309.995228 208.279954)scale(0.12 -0.12)">
      <use xlink:href="#TimesNewRomanPSMT-31"/>
     </g>
    </g>
   </g>
  </g>
  <g id="axis3d_3">
   <g id="line2d_9">
    <path d="M 316.12668 171.68791 
L 320.238571 81.894718 
" style="fill: none; stroke: #000000; stroke-width: 0.8; stroke-linecap: square"/>
   </g>
   <g id="text_8">
    <!-- $z$ -->
    <g transform="translate(356.113498 125.256415)scale(0.12 -0.12)">
     <defs>
      <path id="STIXGeneral-Italic-7a" d="M 2432 2669 
L 582 467 
Q 877 403 1021 307 
Q 1165 211 1350 -64 
Q 1568 -384 1798 -384 
Q 1971 -384 1971 -288 
Q 1971 -256 1939 -192 
Q 1888 -90 1888 -13 
Q 1894 70 1958 137 
Q 2022 205 2099 205 
Q 2202 205 2262 141 
Q 2323 77 2323 -32 
Q 2323 -230 2156 -374 
Q 1990 -518 1728 -518 
Q 1459 -518 1005 -237 
Q 570 32 333 32 
Q 186 32 45 -83 
L -13 -26 
L 1971 2355 
L 1101 2355 
Q 845 2355 729 2281 
Q 614 2208 518 1971 
L 416 1997 
L 621 2739 
L 2432 2739 
L 2432 2669 
z
" transform="scale(0.015625)"/>
     </defs>
     <use xlink:href="#STIXGeneral-Italic-7a" transform="translate(0 0.203125)"/>
    </g>
   </g>
   <g id="Line3DCollection_3">
    <path d="M 316.58549 161.668672 
L 200.792423 128.49342 
L 128.604159 188.126779 
" style="fill: none; stroke: #b0b0b0; stroke-width: 0.8"/>
    <path d="M 317.355063 144.863171 
L 200.605375 112.227266 
L 127.775043 170.909642 
" style="fill: none; stroke: #b0b0b0; stroke-width: 0.8"/>
    <path d="M 318.137584 127.774911 
L 200.415332 95.700609 
L 126.93144 153.391677 
" style="fill: none; stroke: #b0b0b0; stroke-width: 0.8"/>
    <path d="M 318.933383 110.396695 
L 200.22222 78.907138 
L 126.072967 135.564931 
" style="fill: none; stroke: #b0b0b0; stroke-width: 0.8"/>
    <path d="M 319.742801 92.72108 
L 200.025966 61.840341 
L 125.199227 117.421168 
" style="fill: none; stroke: #b0b0b0; stroke-width: 0.8"/>
   </g>
   <g id="xtick_7">
    <g id="line2d_10">
     <path d="M 315.61344 161.390175 
L 318.531914 162.226331 
" style="fill: none; stroke: #000000; stroke-width: 0.8; stroke-linecap: square"/>
    </g>
    <g id="text_9">
     <!-- −0.04 -->
     <g transform="translate(321.027582 167.421879)scale(0.12 -0.12)">
      <defs>
       <path id="TimesNewRomanPSMT-2e" d="M 800 606 
Q 947 606 1047 504 
Q 1147 403 1147 259 
Q 1147 116 1045 14 
Q 944 -88 800 -88 
Q 656 -88 554 14 
Q 453 116 453 259 
Q 453 406 554 506 
Q 656 606 800 606 
z
" transform="scale(0.015625)"/>
       <path id="TimesNewRomanPSMT-34" d="M 2978 1563 
L 2978 1119 
L 2409 1119 
L 2409 0 
L 1894 0 
L 1894 1119 
L 100 1119 
L 100 1519 
L 2066 4325 
L 2409 4325 
L 2409 1563 
L 2978 1563 
z
M 1894 1563 
L 1894 3666 
L 406 1563 
L 1894 1563 
z
" transform="scale(0.015625)"/>
      </defs>
      <use xlink:href="#TimesNewRomanPSMT-2212"/>
      <use xlink:href="#TimesNewRomanPSMT-30" x="56.396484"/>
      <use xlink:href="#TimesNewRomanPSMT-2e" x="106.396484"/>
      <use xlink:href="#TimesNewRomanPSMT-30" x="131.396484"/>
      <use xlink:href="#TimesNewRomanPSMT-34" x="181.396484"/>
     </g>
    </g>
   </g>
   <g id="xtick_8">
    <g id="line2d_11">
     <path d="M 316.374598 144.589094 
L 319.318356 145.411985 
" style="fill: none; stroke: #000000; stroke-width: 0.8; stroke-linecap: square"/>
    </g>
    <g id="text_10">
     <!-- −0.02 -->
     <g transform="translate(321.946608 150.657386)scale(0.12 -0.12)">
      <defs>
       <path id="TimesNewRomanPSMT-32" d="M 2934 816 
L 2638 0 
L 138 0 
L 138 116 
Q 1241 1122 1691 1759 
Q 2141 2397 2141 2925 
Q 2141 3328 1894 3587 
Q 1647 3847 1303 3847 
Q 991 3847 742 3664 
Q 494 3481 375 3128 
L 259 3128 
Q 338 3706 661 4015 
Q 984 4325 1469 4325 
Q 1984 4325 2329 3994 
Q 2675 3663 2675 3213 
Q 2675 2891 2525 2569 
Q 2294 2063 1775 1497 
Q 997 647 803 472 
L 1909 472 
Q 2247 472 2383 497 
Q 2519 522 2628 598 
Q 2738 675 2819 816 
L 2934 816 
z
" transform="scale(0.015625)"/>
      </defs>
      <use xlink:href="#TimesNewRomanPSMT-2212"/>
      <use xlink:href="#TimesNewRomanPSMT-30" x="56.396484"/>
      <use xlink:href="#TimesNewRomanPSMT-2e" x="106.396484"/>
      <use xlink:href="#TimesNewRomanPSMT-30" x="131.396484"/>
      <use xlink:href="#TimesNewRomanPSMT-32" x="181.396484"/>
     </g>
    </g>
   </g>
   <g id="xtick_9">
    <g id="line2d_12">
     <path d="M 317.148557 127.505443 
L 320.118041 128.314501 
" style="fill: none; stroke: #000000; stroke-width: 0.8; stroke-linecap: square"/>
    </g>
    <g id="text_11">
     <!-- 0.00 -->
     <g transform="translate(326.264477 133.61188)scale(0.12 -0.12)">
      <use xlink:href="#TimesNewRomanPSMT-30"/>
      <use xlink:href="#TimesNewRomanPSMT-2e" x="50"/>
      <use xlink:href="#TimesNewRomanPSMT-30" x="75"/>
      <use xlink:href="#TimesNewRomanPSMT-30" x="125"/>
     </g>
    </g>
   </g>
   <g id="xtick_10">
    <g id="line2d_13">
     <path d="M 317.935644 110.132033 
L 320.931306 110.926668 
" style="fill: none; stroke: #000000; stroke-width: 0.8; stroke-linecap: square"/>
    </g>
    <g id="text_12">
     <!-- 0.02 -->
     <g transform="translate(327.214703 116.278237)scale(0.12 -0.12)">
      <use xlink:href="#TimesNewRomanPSMT-30"/>
      <use xlink:href="#TimesNewRomanPSMT-2e" x="50"/>
      <use xlink:href="#TimesNewRomanPSMT-30" x="75"/>
      <use xlink:href="#TimesNewRomanPSMT-32" x="125"/>
     </g>
    </g>
   </g>
   <g id="xtick_11">
    <g id="line2d_14">
     <path d="M 318.736195 92.461428 
L 321.7585 93.241026 
" style="fill: none; stroke: #000000; stroke-width: 0.8; stroke-linecap: square"/>
    </g>
    <g id="text_13">
     <!-- 0.04 -->
     <g transform="translate(328.18113 98.649089)scale(0.12 -0.12)">
      <use xlink:href="#TimesNewRomanPSMT-30"/>
      <use xlink:href="#TimesNewRomanPSMT-2e" x="50"/>
      <use xlink:href="#TimesNewRomanPSMT-30" x="75"/>
      <use xlink:href="#TimesNewRomanPSMT-34" x="125"/>
     </g>
    </g>
   </g>
  </g>
  <g id="axes_1">
   <g id="line2d_15">
    <defs>
     <path id="m43557c21c2" d="M 0 1.5 
C 0.397805 1.5 0.77937 1.341951 1.06066 1.06066 
C 1.341951 0.77937 1.5 0.397805 1.5 0 
C 1.5 -0.397805 1.341951 -0.77937 1.06066 -1.06066 
C 0.77937 -1.341951 0.397805 -1.5 0 -1.5 
C -0.397805 -1.5 -0.77937 -1.341951 -1.06066 -1.06066 
C -1.341951 -0.77937 -1.5 -0.397805 -1.5 0 
C -1.5 0.397805 -1.341951 0.77937 -1.06066 1.06066 
C -0.77937 1.341951 -0.397805 1.5 0 1.5 
z
" style="stroke: #1f77b4"/>
    </defs>
    <g clip-path="url(#pf7ced1cb24)">
     <use xlink:href="#m43557c21c2" x="214.243432" y="142.745463" style="fill: #1f77b4; stroke: #1f77b4"/>
     <use xlink:href="#m43557c21c2" x="209.013484" y="138.906588" style="fill: #1f77b4; stroke: #1f77b4"/>
     <use xlink:href="#m43557c21c2" x="227.047952" y="140.975752" style="fill: #1f77b4; stroke: #1f77b4"/>
     <use xlink:href="#m43557c21c2" x="216.266462" y="141.009625" style="fill: #1f77b4; stroke: #1f77b4"/>
     <use xlink:href="#m43557c21c2" x="220.281738" y="137.564362" style="fill: #1f77b4; stroke: #1f77b4"/>
     <use xlink:href="#m43557c21c2" x="223.564631" y="143.125766" style="fill: #1f77b4; stroke: #1f77b4"/>
     <use xlink:href="#m43557c21c2" x="217.010345" y="146.926831" style="fill: #1f77b4; stroke: #1f77b4"/>
     <use xlink:href="#m43557c21c2" x="197.532411" y="143.684737" style="fill: #1f77b4; stroke: #1f77b4"/>
     <use xlink:href="#m43557c21c2" x="212.210036" y="144.490196" style="fill: #1f77b4; stroke: #1f77b4"/>
     <use xlink:href="#m43557c21c2" x="212.63435" y="139.956477" style="fill: #1f77b4; stroke: #1f77b4"/>
     <use xlink:href="#m43557c21c2" x="203.50214" y="144.286939" style="fill: #1f77b4; stroke: #1f77b4"/>
     <use xlink:href="#m43557c21c2" x="212.979846" y="136.245128" style="fill: #1f77b4; stroke: #1f77b4"/>
     <use xlink:href="#m43557c21c2" x="214.311431" y="130.355279" style="fill: #1f77b4; stroke: #1f77b4"/>
     <use xlink:href="#m43557c21c2" x="233.738332" y="134.065862" style="fill: #1f77b4; stroke: #1f77b4"/>
     <use xlink:href="#m43557c21c2" x="240.527618" y="140.963194" style="fill: #1f77b4; stroke: #1f77b4"/>
     <use xlink:href="#m43557c21c2" x="238.298244" y="147.39785" style="fill: #1f77b4; stroke: #1f77b4"/>
     <use xlink:href="#m43557c21c2" x="229.906782" y="150.477323" style="fill: #1f77b4; stroke: #1f77b4"/>
     <use xlink:href="#m43557c21c2" x="218.058844" y="150.192805" style="fill: #1f77b4; stroke: #1f77b4"/>
     <use xlink:href="#m43557c21c2" x="206.046848" y="149.778451" style="fill: #1f77b4; stroke: #1f77b4"/>
     <use xlink:href="#m43557c21c2" x="230.908416" y="145.255133" style="fill: #1f77b4; stroke: #1f77b4"/>
     <use xlink:href="#m43557c21c2" x="241.680698" y="135.227214" style="fill: #1f77b4; stroke: #1f77b4"/>
     <use xlink:href="#m43557c21c2" x="235.329244" y="130.653073" style="fill: #1f77b4; stroke: #1f77b4"/>
     <use xlink:href="#m43557c21c2" x="228.191323" y="130.777631" style="fill: #1f77b4; stroke: #1f77b4"/>
     <use xlink:href="#m43557c21c2" x="228.366109" y="137.772187" style="fill: #1f77b4; stroke: #1f77b4"/>
     <use xlink:href="#m43557c21c2" x="248.919969" y="142.812908" style="fill: #1f77b4; stroke: #1f77b4"/>
     <use xlink:href="#m43557c21c2" x="233.068626" y="140.786855" style="fill: #1f77b4; stroke: #1f77b4"/>
     <use xlink:href="#m43557c21c2" x="223.079789" y="145.953224" style="fill: #1f77b4; stroke: #1f77b4"/>
     <use xlink:href="#m43557c21c2" x="219.909871" y="142.06605" style="fill: #1f77b4; stroke: #1f77b4"/>
     <use xlink:href="#m43557c21c2" x="221.094047" y="140.548202" style="fill: #1f77b4; stroke: #1f77b4"/>
     <use xlink:href="#m43557c21c2" x="217.978847" y="144.713361" style="fill: #1f77b4; stroke: #1f77b4"/>
     <use xlink:href="#m43557c21c2" x="222.957272" y="141.72757" style="fill: #1f77b4; stroke: #1f77b4"/>
     <use xlink:href="#m43557c21c2" x="217.438037" y="143.348384" style="fill: #1f77b4; stroke: #1f77b4"/>
     <use xlink:href="#m43557c21c2" x="221.80963" y="143.546958" style="fill: #1f77b4; stroke: #1f77b4"/>
     <use xlink:href="#m43557c21c2" x="218.468343" y="146.317285" style="fill: #1f77b4; stroke: #1f77b4"/>
     <use xlink:href="#m43557c21c2" x="211.242633" y="157.685538" style="fill: #1f77b4; stroke: #1f77b4"/>
     <use xlink:href="#m43557c21c2" x="190.495251" y="152.59737" style="fill: #1f77b4; stroke: #1f77b4"/>
     <use xlink:href="#m43557c21c2" x="185.151332" y="136.590509" style="fill: #1f77b4; stroke: #1f77b4"/>
     <use xlink:href="#m43557c21c2" x="186.233628" y="137.370465" style="fill: #1f77b4; stroke: #1f77b4"/>
     <use xlink:href="#m43557c21c2" x="177.874991" y="141.959053" style="fill: #1f77b4; stroke: #1f77b4"/>
     <use xlink:href="#m43557c21c2" x="185.271079" y="140.681912" style="fill: #1f77b4; stroke: #1f77b4"/>
     <use xlink:href="#m43557c21c2" x="237.793784" y="151.360183" style="fill: #1f77b4; stroke: #1f77b4"/>
     <use xlink:href="#m43557c21c2" x="221.069612" y="154.678743" style="fill: #1f77b4; stroke: #1f77b4"/>
     <use xlink:href="#m43557c21c2" x="211.296633" y="146.693058" style="fill: #1f77b4; stroke: #1f77b4"/>
    </g>
   </g>
   <g id="line2d_16">
    <defs>
     <path id="m724035f18f" d="M 0 1.5 
C 0.397805 1.5 0.77937 1.341951 1.06066 1.06066 
C 1.341951 0.77937 1.5 0.397805 1.5 0 
C 1.5 -0.397805 1.341951 -0.77937 1.06066 -1.06066 
C 0.77937 -1.341951 0.397805 -1.5 0 -1.5 
C -0.397805 -1.5 -0.77937 -1.341951 -1.06066 -1.06066 
C -1.341951 -0.77937 -1.5 -0.397805 -1.5 0 
C -1.5 0.397805 -1.341951 0.77937 -1.06066 1.06066 
C -0.77937 1.341951 -0.397805 1.5 0 1.5 
z
" style="stroke: #ff7f0e"/>
    </defs>
    <g clip-path="url(#pf7ced1cb24)">
     <use xlink:href="#m724035f18f" x="281.018552" y="144.464675" style="fill: #ff7f0e; stroke: #ff7f0e"/>
     <use xlink:href="#m724035f18f" x="275.953447" y="158.316163" style="fill: #ff7f0e; stroke: #ff7f0e"/>
     <use xlink:href="#m724035f18f" x="257.10664" y="166.306999" style="fill: #ff7f0e; stroke: #ff7f0e"/>
     <use xlink:href="#m724035f18f" x="242.192406" y="171.097329" style="fill: #ff7f0e; stroke: #ff7f0e"/>
     <use xlink:href="#m724035f18f" x="209.540041" y="173.018614" style="fill: #ff7f0e; stroke: #ff7f0e"/>
     <use xlink:href="#m724035f18f" x="260.748367" y="153.907374" style="fill: #ff7f0e; stroke: #ff7f0e"/>
     <use xlink:href="#m724035f18f" x="276.890186" y="141.208885" style="fill: #ff7f0e; stroke: #ff7f0e"/>
     <use xlink:href="#m724035f18f" x="265.583947" y="119.636007" style="fill: #ff7f0e; stroke: #ff7f0e"/>
     <use xlink:href="#m724035f18f" x="229.486198" y="115.203721" style="fill: #ff7f0e; stroke: #ff7f0e"/>
     <use xlink:href="#m724035f18f" x="203.753666" y="117.478787" style="fill: #ff7f0e; stroke: #ff7f0e"/>
     <use xlink:href="#m724035f18f" x="165.190003" y="147.722215" style="fill: #ff7f0e; stroke: #ff7f0e"/>
     <use xlink:href="#m724035f18f" x="257.994401" y="116.066904" style="fill: #ff7f0e; stroke: #ff7f0e"/>
     <use xlink:href="#m724035f18f" x="199.48438" y="164.920167" style="fill: #ff7f0e; stroke: #ff7f0e"/>
     <use xlink:href="#m724035f18f" x="208.7172" y="116.491766" style="fill: #ff7f0e; stroke: #ff7f0e"/>
     <use xlink:href="#m724035f18f" x="167.777088" y="150.436436" style="fill: #ff7f0e; stroke: #ff7f0e"/>
     <use xlink:href="#m724035f18f" x="276.703749" y="141.382172" style="fill: #ff7f0e; stroke: #ff7f0e"/>
     <use xlink:href="#m724035f18f" x="265.304098" y="119.559037" style="fill: #ff7f0e; stroke: #ff7f0e"/>
     <use xlink:href="#m724035f18f" x="227.380845" y="116.971079" style="fill: #ff7f0e; stroke: #ff7f0e"/>
     <use xlink:href="#m724035f18f" x="166.91835" y="147.515257" style="fill: #ff7f0e; stroke: #ff7f0e"/>
     <use xlink:href="#m724035f18f" x="248.673379" y="124.199706" style="fill: #ff7f0e; stroke: #ff7f0e"/>
     <use xlink:href="#m724035f18f" x="269.154786" y="131.450291" style="fill: #ff7f0e; stroke: #ff7f0e"/>
     <use xlink:href="#m724035f18f" x="270.751836" y="138.798015" style="fill: #ff7f0e; stroke: #ff7f0e"/>
     <use xlink:href="#m724035f18f" x="272.371798" y="148.610662" style="fill: #ff7f0e; stroke: #ff7f0e"/>
     <use xlink:href="#m724035f18f" x="189.819225" y="120.755498" style="fill: #ff7f0e; stroke: #ff7f0e"/>
     <use xlink:href="#m724035f18f" x="169.911459" y="127.568762" style="fill: #ff7f0e; stroke: #ff7f0e"/>
     <use xlink:href="#m724035f18f" x="159.260107" y="139.504268" style="fill: #ff7f0e; stroke: #ff7f0e"/>
     <use xlink:href="#m724035f18f" x="162.337215" y="152.461522" style="fill: #ff7f0e; stroke: #ff7f0e"/>
     <use xlink:href="#m724035f18f" x="177.544248" y="163.024971" style="fill: #ff7f0e; stroke: #ff7f0e"/>
     <use xlink:href="#m724035f18f" x="200.350107" y="169.459981" style="fill: #ff7f0e; stroke: #ff7f0e"/>
     <use xlink:href="#m724035f18f" x="223.156231" y="168.558183" style="fill: #ff7f0e; stroke: #ff7f0e"/>
     <use xlink:href="#m724035f18f" x="244.390932" y="162.548231" style="fill: #ff7f0e; stroke: #ff7f0e"/>
    </g>
   </g>
  </g>
 </g>
 <defs>
  <clipPath id="pf7ced1cb24">
   <rect x="112.68" y="34.56" width="217.44" height="217.44"/>
  </clipPath>
 </defs>
</svg>
